<?xml version="1.0" encoding="iso-8859-1"?>
<!-- Generator: Adobe Illustrator 19.0.0, SVG Export Plug-In . SVG Version: 6.00 Build 0)  -->
<svg version="1.1" id="Layer_1" xmlns="http://www.w3.org/2000/svg" xmlns:xlink="http://www.w3.org/1999/xlink" x="0px" y="0px"
	 viewBox="0 0 512 512" style="enable-background:new 0 0 512 512;" xml:space="preserve">
<polygon style="fill:#B9B9B9;" points="512,479.367 512,372.466 478.242,372.466 444.484,425.917 478.242,479.367 "/>
<polygon style="fill:#DCDCDC;" points="478.242,479.367 478.242,372.466 298.198,372.466 256,271.191 213.802,372.466 0,372.466 
	0,479.367 "/>
<g>
	<circle style="fill:#737373;" cx="74.08" cy="425.917" r="16.879"/>
	<circle style="fill:#737373;" cx="165.044" cy="425.917" r="16.879"/>
	<circle style="fill:#737373;" cx="256" cy="425.917" r="16.879"/>
	<circle style="fill:#737373;" cx="346.956" cy="425.917" r="16.879"/>
	<circle style="fill:#737373;" cx="437.923" cy="425.917" r="16.879"/>
</g>
<polygon style="fill:#81E3E2;" points="298.191,180.041 298.191,237.431 331.956,237.431 331.956,214.925 365.714,214.925 
	365.714,237.431 399.477,237.431 399.477,214.924 444.477,214.924 444.477,157.535 382.587,157.535 "/>
<g>
	<polygon style="fill:#42C8C6;" points="298.198,146.282 298.198,180.041 433.224,180.041 433.235,237.431 466.982,237.431 
		466.989,146.282 	"/>
	<path style="fill:#42C8C6;" d="M489.495,112.527h-33.758v45.011h33.758c12.434,0,22.505-10.082,22.505-22.505
		C512,122.599,501.929,112.527,489.495,112.527z"/>
</g>
<path style="fill:#81E3E2;" d="M455.736,112.527H202.313c-10.251-45.731-51.087-79.895-99.913-79.895
	C45.844,32.633,0,78.477,0,135.033s45.844,102.4,102.4,102.4c48.826,0,89.662-34.175,99.913-79.895h253.423
	c12.434,0,22.505-10.082,22.505-22.505C478.242,122.599,468.171,112.527,455.736,112.527z M102.4,192.422
	c-31.643,0-57.389-25.746-57.389-57.389S70.757,77.644,102.4,77.644s57.389,25.746,57.389,57.389S134.043,192.422,102.4,192.422z"/>
<g>
</g>
<g>
</g>
<g>
</g>
<g>
</g>
<g>
</g>
<g>
</g>
<g>
</g>
<g>
</g>
<g>
</g>
<g>
</g>
<g>
</g>
<g>
</g>
<g>
</g>
<g>
</g>
<g>
</g>
</svg>
